<?xml version="1.0" encoding="UTF-8" standalone="no"?>
<!DOCTYPE svg PUBLIC "-//W3C//DTD SVG 20010904//EN"
              "http://www.w3.org/TR/2001/REC-SVG-20010904/DTD/svg10.dtd">

<svg fill="#b071a8" xmlns="http://www.w3.org/2000/svg"  viewBox="0 0 1200 1200">
  <path id="Selection #1"  stroke-width="1" d="M 119.00,483.00
           C 119.00,483.00 118.00,1063.00 118.00,1063.00
             118.01,1070.78 119.18,1076.88 127.00,1080.69
             130.62,1082.45 136.90,1082.00 141.00,1082.00
             141.00,1082.00 1065.00,1082.00 1065.00,1082.00
             1078.66,1081.98 1083.98,1076.66 1084.00,1063.00
             1084.00,1063.00 1084.00,738.00 1084.00,738.00
             1084.00,735.15 1084.13,731.67 1083.11,729.00
             1081.54,724.89 1077.25,720.79 1073.00,719.57
             1070.19,718.77 1063.23,719.00 1060.00,719.00
             1060.00,719.00 604.00,719.00 604.00,719.00
             604.00,719.00 604.00,483.00 604.00,483.00
             604.00,483.00 623.00,483.00 623.00,483.00
             633.87,482.98 641.67,479.13 641.99,467.00
             642.30,454.94 637.31,453.31 629.00,445.00
             629.00,445.00 387.00,208.00 387.00,208.00
             383.34,204.34 374.26,194.36 370.00,192.74
             368.11,192.02 365.99,192.03 364.00,192.00
             349.08,191.81 347.28,198.34 337.00,207.91
             337.00,207.91 90.00,445.00 90.00,445.00
             86.88,448.12 80.09,454.36 78.31,458.00
             74.37,466.12 77.73,477.65 86.00,481.69
             89.07,483.18 92.67,482.99 96.00,483.00
             96.00,483.00 119.00,483.00 119.00,483.00 Z" />
</svg>
