<?xml version="1.0" encoding="UTF-8" standalone="no"?>
<!DOCTYPE svg PUBLIC "-//W3C//DTD SVG 20010904//EN"
              "http://www.w3.org/TR/2001/REC-SVG-20010904/DTD/svg10.dtd">

<svg fill="#b071a8" xmlns="http://www.w3.org/2000/svg"  viewBox="0 0 1200 1200">
   <path id="Selection" stroke-width="1" d="M 358.00,723.00
           C 358.00,723.00 358.00,1064.00 358.00,1064.00
             358.02,1077.66 363.34,1082.98 377.00,1083.00
             377.00,1083.00 824.00,1083.00 824.00,1083.00
             837.66,1082.98 842.98,1077.66 843.00,1064.00
             843.00,1064.00 843.00,723.00 843.00,723.00
             856.95,723.00 879.46,727.35 879.99,707.00
             880.30,694.94 875.31,693.31 867.00,685.00
             867.00,685.00 625.00,448.00 625.00,448.00
             621.34,444.34 612.26,434.36 608.00,432.74
             606.11,432.02 603.99,432.03 602.00,432.00
             586.61,431.80 584.69,439.16 574.00,448.83
             574.00,448.83 330.00,683.00 330.00,683.00
             325.52,687.48 316.59,694.88 315.19,701.00
             314.99,702.74 314.95,706.18 315.19,708.00
             315.34,714.27 319.00,719.82 325.00,722.11
             328.09,723.29 333.58,723.00 337.00,723.00
             337.00,723.00 358.00,723.00 358.00,723.00 Z" />
</svg>
