<svg fill="#ededeb" xmlns="http://www.w3.org/2000/svg" viewBox="0 0 148.09 107.74"><g id="Layer_2" data-name="Layer 2"><g id="Layer_1-2" data-name="Layer 1"><path d="M13.19,27.77l1.14-1.09Q21.62,34,28.9,41.31l-.65.66ZM74.49,0h-1V20.52h1ZM20,84.08l0-.87H0l0,.87Zm128,1.17,0-1H128.38l0,1ZM133.38,28l1.47,1.6L119.32,43.3l-.87-.94Z"/><path d="M109.39,62.87c6.35,1.42,10.41,10.87,7.81,16.15-7.71,15.6-21.64,23.2-37.19,28.55-1.63.56-3.87-.42-5.76-.92-9.79-2.58-19.64-5-29.29-8-6.42-2-10.06-7.6-12.36-13.32-3.83-9.57-2.82-19.57,0-29.31a7.42,7.42,0,0,1,3.29-3.81C39.74,50,44.05,48.44,47.79,46,53.69,42.18,59.42,38,65,33.7c8.68-6.81,16.88-6.91,26-.32,4.19,3,8.61,5.43,11.24,10.12a15,15,0,0,0,3.31,4.35C110.34,51.84,113.52,56.21,109.39,62.87ZM56.71,87c1.32,3.24,1.93,5.34,3,7.14.65,1.07,2.07,2.38,3.12,2.37,9.82-.13,15.9-4.8,19.37-15.82Zm11-15.72c-5-2.85-8.9-4.69-12.34-7.22C50.62,60.59,47.24,62,44,66.35a59,59,0,0,0,4.19,7.14c.81,1.06,2.75,2.1,3.91,1.87C56.91,74.38,61.67,72.91,67.68,71.28Zm37.55-18.84-2.33.12c-3.12,4.67-6.41,9.26-9.26,14.09-.65,1.11-.41,3.83.44,4.51,2.12,1.67,4.84,2.59,7.8,4.06,1.73-5.8,3.58-10.94,4.69-16.23C107,57,105.73,54.63,105.23,52.44ZM85.27,59l15-10.84c-4.41-7.08-6-7.64-11.4-4.64C83.77,46.4,81.94,53,85.27,59ZM82.35,43.65l-19.82-2.3c-.9,5.6,1.08,9.32,5.31,10.92C71.8,53.76,79.11,49.79,82.35,43.65ZM53.42,58.14c5.8,3.31,10.78,5.94,15.51,9,3.22,2,5.46,1.85,7.42-2.16L59.92,51.5ZM81.49,93l13,2.86c0-3.72.42-6.76-.18-9.59-.3-1.45-2.26-3.09-3.79-3.54-1.18-.34-3.4.64-4.22,1.74C84.48,86.82,83.32,89.62,81.49,93Zm7.42-27.21c-2.51,0-5.2-.81-6.22.15-2.87,2.73-5.1,6.14-7.41,9.41-.2.28.7,1.84,1.39,2.16a7.5,7.5,0,0,0,9.92-4.19C87.34,71.16,87.94,69,88.91,65.79ZM90.14,38.6c-9.2-8-14.23-8.26-22.37-.94C75.35,37.76,82.38,41,90.14,38.6ZM36.34,82.3C46.26,78.46,46.7,76.78,39.79,69,32.92,72.2,32.72,72.94,36.34,82.3Zm34.4-7.74-18.57,5C55,83.87,55,83.87,58.31,82.85,70.73,79.07,70.73,79.07,70.74,74.56Zm17.61,24.8c-6.81-2.91-13.22-3.23-19.64.57C76.79,104.63,80.44,104.52,88.35,99.36ZM109.71,82.8c4.61-5.56,5.3-8.47,2.65-13.14-.44-.78-3.38-1.25-3.87-.71C105.44,72.38,106.09,79.08,109.71,82.8ZM43.11,93.07c8.75-5.8,9.21-7.11,4.06-11.4l-9.3,5.26ZM58,45.29,41.22,53.88C49.32,56.92,54.16,54.56,58,45.29ZM98.72,92.43l1,.72,7.77-6.42c-2.48-1.9-5-5-6.15-4.52C96.24,84.2,99.71,89,98.72,92.43ZM36.18,57.8c-.57,3-1,5.31-1.76,9.14l9.68-6.85a19.51,19.51,0,0,0-2.55-1.21C40,58.51,38.39,58.24,36.18,57.8Zm44.67,5.46c-.93-8.78-2.39-9.8-8-6.46C75.28,58.78,77.6,60.65,80.85,63.26ZM56.5,96.93c-1.25-2.77-2.07-4.61-3.16-7l-5.68,5.29Zm41-17.23L98,78c-1.94-1-3.85-2.13-5.86-3-.51-.21-1.87.31-2,.7-.19.79,0,2.37.42,2.49C92.85,78.89,95.21,79.24,97.53,79.7Z"/><path d="M13.19,27.77,28.25,42l.65-.66Q21.63,34,14.33,26.68Z"/><ellipse cx="73.98" cy="10.26" rx="0.71" ry="14.51"/><path d="M20,84.08H0l0-.87H20Z"/><path d="M148.07,85.25H128.4l0-1h19.71Z"/><path d="M133.38,28,118.45,42.36l.87.94,15.53-13.67Z"/></g></g></svg>