<svg fill="#595245" xmlns="http://www.w3.org/2000/svg" viewBox="0 0 110.55 143.16"><defs><style>.cls-1{fill:none;}</style></defs><g id="Layer_2" data-name="Layer 2"><g id="Layer_1-2" data-name="Layer 1"><path d="M91.89,58.23h17.92l0,2.24c-7.73,0-15.45.05-23.17-.09a2.8,2.8,0,0,1-2-1.91c-.14-7.89-.09-15.78-.09-23.67l2.22-.15V53.76l1.76.5L98,46l1.33,1.37q-4.12,4.67-8.27,9.32Z"/><path d="M110.52,73H89.86l9,10.4-1.21,1.31L87.35,76V96.72l-2.73-.08c0-8-.05-16,.09-24.06a2.86,2.86,0,0,1,1.9-2c8-.15,16-.09,23.94-.09Z"/><path d="M23.42,96.14V75.23L12.61,85l-1.41-1.3,9.16-10.63H.08L0,70.5c4.21-.1,8.41-.29,12.62-.3,13.22,0,13.23,0,13.29,13.35,0,4.18,0,8.36,0,12.54Z"/><path d="M20.8,58.18,11.07,47.45l1.14-1.27,10.94,9.21V34.86l2.74-.07c0,3.35,0,6.69,0,10,.07,15.8.08,15.8-15.83,15.8H.16V58.18Z"/><path d="M59.47,24.06l3.17-3.62c.91,1.3,2.52,2.61,2.52,3.9s-1.6,2.65-2.5,4Z"/><path d="M59.53,6.62c-1.86.46-3.76,1.56-5,1S52.27,5,52.2,3.57C52.15,2.42,53.72,1.19,54.58,0Z"/><path d="M57.84,16.38,54.65,20.1c-.85-1.39-2.26-2.73-2.38-4.18-.1-1.13,1.4-2.4,2.19-3.61Z"/><path d="M39.31,16.09c.45,1.57,1.4,3.2,1.2,4.68-.16,1.22-1.68,2.25-2.6,3.36-.73-1.48-1.9-2.93-2-4.46-.1-1.19,1.11-2.49,1.74-3.74Z"/><path d="M75.79,18.07l-5,6c-.72-1.07-2.11-2.19-2-3.18.14-1.55.93-3.67,2.1-4.29C71.81,16.06,73.74,17.38,75.79,18.07Z"/><path d="M38.82,28.22c.62,1.29,1.83,2.65,1.7,3.86-.16,1.53-1.42,2.94-2.21,4.4C37.45,35.32,36,34.23,35.89,33c-.16-1.5.78-3.12,1.24-4.68Z"/><path class="cls-1" d="M56.78,100.12l1.74,1.32L69.14,89l-2-1.6C63.48,91.45,58.06,94.08,56.78,100.12Z"/><path class="cls-1" d="M39.89,64.53l10.68,12,2.29-1.93-10.52-12Z"/><path class="cls-1" d="M68.13,76.56l-1.61-1.28q-5.23,5.89-10.46,11.8l2.24,1.63C61.74,84.78,67.2,82.38,68.13,76.56Z"/><path class="cls-1" d="M51.9,87.47c-.76-6.06-6.56-8.22-9.72-12.42l-2.32,1.82L50.39,88.72Z"/><path class="cls-1" d="M57.73,113c4-3.73,9.94-6,9.76-12.85C63.38,103.82,57.75,106.34,57.73,113Z"/><path class="cls-1" d="M40.79,100.63c.73,6.3,6.55,8.59,9.89,12.83l2.12-1.69L42.59,99.55Z"/><path class="cls-1" d="M56.78,100.12l1.74,1.32L69.14,89l-2-1.6C63.48,91.45,58.06,94.08,56.78,100.12Z"/><path class="cls-1" d="M58.41,76.81,69.24,64.53,66.93,62.8C63.79,67.22,57.5,69.26,58.41,76.81Z"/><path class="cls-1" d="M39.89,64.53l10.68,12,2.29-1.93-10.52-12Z"/><path class="cls-1" d="M40.79,100.63c.73,6.3,6.55,8.59,9.89,12.83l2.12-1.69L42.59,99.55Z"/><path class="cls-1" d="M51.9,87.47c-.76-6.06-6.56-8.22-9.72-12.42l-2.32,1.82L50.39,88.72Z"/><path class="cls-1" d="M52.7,99.13l-10.54-12L39.88,89l10.24,12.08Z"/><path class="cls-1" d="M68.13,76.56l-1.61-1.28q-5.23,5.89-10.46,11.8l2.24,1.63C61.74,84.78,67.2,82.38,68.13,76.56Z"/><path class="cls-1" d="M57.73,113c4-3.73,9.94-6,9.76-12.85C63.38,103.82,57.75,106.34,57.73,113Z"/><path class="cls-1" d="M56.78,100.12l1.74,1.32L69.14,89l-2-1.6C63.48,91.45,58.06,94.08,56.78,100.12Z"/><path class="cls-1" d="M58.41,76.81,69.24,64.53,66.93,62.8C63.79,67.22,57.5,69.26,58.41,76.81Z"/><path class="cls-1" d="M39.89,64.53l10.68,12,2.29-1.93-10.52-12Z"/><path class="cls-1" d="M68.13,76.56l-1.61-1.28q-5.23,5.89-10.46,11.8l2.24,1.63C61.74,84.78,67.2,82.38,68.13,76.56Z"/><path class="cls-1" d="M52.7,99.13l-10.54-12L39.88,89l10.24,12.08Z"/><path class="cls-1" d="M51.9,87.47c-.76-6.06-6.56-8.22-9.72-12.42l-2.32,1.82L50.39,88.72Z"/><path class="cls-1" d="M40.79,100.63c.73,6.3,6.55,8.59,9.89,12.83l2.12-1.69L42.59,99.55Z"/><path class="cls-1" d="M57.73,113c4-3.73,9.94-6,9.76-12.85C63.38,103.82,57.75,106.34,57.73,113Z"/><path class="cls-1" d="M58.41,76.81,69.24,64.53,66.93,62.8C63.79,67.22,57.5,69.26,58.41,76.81Z"/><path class="cls-1" d="M56.78,100.12l1.74,1.32L69.14,89l-2-1.6C63.48,91.45,58.06,94.08,56.78,100.12Z"/><path class="cls-1" d="M39.89,64.53l10.68,12,2.29-1.93-10.52-12Z"/><path class="cls-1" d="M40.79,100.63c.73,6.3,6.55,8.59,9.89,12.83l2.12-1.69L42.59,99.55Z"/><path class="cls-1" d="M68.13,76.56l-1.61-1.28q-5.23,5.89-10.46,11.8l2.24,1.63C61.74,84.78,67.2,82.38,68.13,76.56Z"/><path class="cls-1" d="M52.7,99.13l-10.54-12L39.88,89l10.24,12.08Z"/><path class="cls-1" d="M57.73,113c4-3.73,9.94-6,9.76-12.85C63.38,103.82,57.75,106.34,57.73,113Z"/><path class="cls-1" d="M58.41,76.81,69.24,64.53,66.93,62.8C63.79,67.22,57.5,69.26,58.41,76.81Z"/><path class="cls-1" d="M56.78,100.12l1.74,1.32L69.14,89l-2-1.6C63.48,91.45,58.06,94.08,56.78,100.12Z"/><path class="cls-1" d="M51.9,87.47c-.76-6.06-6.56-8.22-9.72-12.42l-2.32,1.82L50.39,88.72Z"/><path d="M73.19,46.13c0-1.81-1.12-3.6-1.72-5.4l-2,.25Q68.4,48,67.34,55.13l-2-.4c0-5.11.27-10.24-.13-15.33-.17-2.24-1.7-4.38-2.62-6.57-.76,2.08-2.09,4.14-2.19,6.25-.29,6.36,0,12.75-.18,19.12-.06,1.91-1,3.78-1.55,5.67l-1.79-.31c0-9.78.17-19.56-.09-29.33-.09-3.19-1.3-6.35-2-9.52-1,3.19-2.65,6.35-2.77,9.57-.37,9.7-.13,19.42-.13,29.13L50,63.54A55.15,55.15,0,0,1,49,56.82c-.14-6.37.12-12.76-.19-19.12-.08-1.66-1.65-3.24-2.53-4.86-.78,1.68-2.15,3.33-2.24,5-.29,5.65-.11,11.32-.11,17l-2.51.27a69.79,69.79,0,0,0-.8-8.58c-.4-1.91-1.66-3.64-2.54-5.46-.82,1.85-2.32,3.68-2.35,5.54-.19,13.78.75,27.63-.33,41.33-1,12.33,1.93,22.1,12,29.44,3.68,2.66,4.85,6.26,4.51,10.75a76.82,76.82,0,0,0,.23,12.32c.08,1,1.73,1.8,2.66,2.69.67-.91,1.67-1.74,1.92-2.75a10.55,10.55,0,0,0,.11-4.3c-1.77-10.38,1.81-18.41,10.4-24.37a8.83,8.83,0,0,0,2.61-2.59c1.29-2.22,3.27-4.58,3.3-6.91C73.44,83.54,73.34,64.83,73.19,46.13ZM39.86,76.87l2.32-1.82c3.16,4.2,9,6.36,9.72,12.42l-1.51,1.25Zm2.3,10.24,10.54,12-2.58,1.94L39.88,89Zm8.52,26.35c-3.34-4.24-9.16-6.53-9.89-12.83l1.8-1.08L52.8,111.77Zm-.11-36.94-10.68-12,2.45-1.92,10.52,12Zm5.49,10.56q5.22-5.91,10.46-11.8l1.61,1.28c-.93,5.82-6.39,8.22-9.83,12.15Zm1.67,26c0-6.69,5.65-9.21,9.76-12.85C67.67,107,61.73,109.3,57.73,113Zm.79-11.59-1.74-1.32c1.28-6,6.7-8.67,10.4-12.72l2,1.6Zm-.11-24.63c-.91-7.55,5.38-9.59,8.52-14l2.31,1.73Z"/></g></g></svg>