<svg fill="#d6c36d" xmlns="http://www.w3.org/2000/svg" viewBox="0 0 121.43 138.71"><g id="Layer_2" data-name="Layer 2"><g id="Layer_1-2" data-name="Layer 1"><path d="M89.31,43.73a43.07,43.07,0,0,1,4.87-5.21c1.53-1.2,3.86-2.74,5.33-2.33,1.8.5,4.13,2.75,4.35,4.48a20.83,20.83,0,0,1-1.12,9.74,126.26,126.26,0,0,1-8.51,18.35C88.8,78.07,87.51,87.94,88,98.45c.42,8.33-.12,16.71.15,25.06.16,5-1.93,8.47-6.17,10.21-16.18,6.61-32.43,6.82-48.57-.36-4.88-2.17-5.63-6.42-5.63-11.08q0-27.73,0-55.47c0-17.42,0-34.84-.08-52.25,0-4.53,2.13-7.72,5.91-9.32,16.51-7,33.12-7.11,49.53.37,3.71,1.69,5.18,4.9,5.08,9.16-.22,9.5-.07,19-.07,28.52ZM31.87,19.83c-.12,2.16-.29,3.85-.29,5.54,0,32.16.1,64.31-.13,96.46,0,5.18,2,8.08,6.45,9.64a59.79,59.79,0,0,0,40.68-.19c4.23-1.49,6.08-4.31,6-8.87q-.24-18.64,0-37.3A19,19,0,0,1,86.07,78c3.67-8.46,7.6-16.81,11.4-25.13l-5-6.41A19.13,19.13,0,0,1,90.82,48c-1.74,1.22-3.52,2.39-5.29,3.58a43.61,43.61,0,0,1-.87-6c-.1-8.42,0-16.85,0-26C66.52,27,49.43,26.85,31.87,19.83Zm25.74,2.76c7.76-1.85,15.16-3.4,22.39-5.51a6.62,6.62,0,0,0,3.72-4.5c.19-1.18-1.79-3.42-3.29-4.08-14.9-6.58-30-6.42-44.84,0-5.18,2.24-5.23,6.22,0,8.2C42.62,19.33,50.13,20.65,57.61,22.59Zm40.13,25h2.13V40.08H97.74Z"/><path d="M17.38,103.36c-15-15.49-14.88-49.13.29-63.52C4.42,61,4.2,82.12,17.38,103.36Z"/><path d="M109.9,55c8.29,13.75,2.47,42.77-11.34,52.8C111.27,92.1,115.16,74.57,109.9,55Z"/><path d="M116.79,51.25,99.43,26C105.61,28.59,116.06,43.67,116.79,51.25Z"/><path d="M1.13,61.24V84.7L0,84.74V61.32Z"/><path d="M4,93.83l13.08,20C12.19,111.8,4.87,100.9,4,93.83Z"/><path d="M98.33,117.59l13.51-15.85,1.21,1L99.68,118.93Z"/><path d="M121.43,72.27,118.1,91.43l-1.65-.28,3.28-19.1Z"/><path d="M17.66,29.48,7.27,43.58,6,42.66l10.34-14.3Z"/><path d="M37.62,25.18a30.22,30.22,0,0,1,1.05,5.41q.15,21.58,0,43.18c0,5.13.81,9.79,4.34,13.86a9.88,9.88,0,0,1,2.33,5.78c.24,10.83.15,21.67.12,32.51a8.05,8.05,0,0,1-.75,2.32l-1.43.21a27,27,0,0,1-1.12-5.31c-.12-8.7.17-17.42-.19-26.11-.12-2.82-1.69-5.6-2.71-8.36-1.39-3.76-4-7.44-4.14-11.22-.47-16.33-.23-32.69-.19-49a13.25,13.25,0,0,1,.68-2.9Z"/><path d="M56.83,130.75c-.2-2-.53-4-.57-5.93-.08-4.79-.23-9.6,0-14.38A17.81,17.81,0,0,0,52,97.21,12.64,12.64,0,0,1,49.23,90C48.9,79.15,49,68.32,49,57.49a15.52,15.52,0,0,1,1-3.79l1.55-.1c.41,1.61,1.16,3.21,1.18,4.82.11,9.76-.17,19.54.21,29.29.11,2.94,1.93,5.81,3,8.72,1.38,3.91,3.45,7.74,3.93,11.76.68,5.78.27,11.7.15,17.56a28.23,28.23,0,0,1-1,5.12Z"/><path d="M65,77.77c2.54,3.38,2.76,48.09.26,52.07C62.75,126.57,62.54,82,65,77.77Z"/><path d="M44.83,29V78.29C41.63,75.14,41.05,34.34,44.83,29Z"/><path d="M71.56,128.43c-2.3-6.38-1.74-27.95.6-31.08C75.31,101,75,125.62,71.56,128.43Z"/><path d="M50.65,101.92c2.71,3.46,3.07,23.52.81,28.11C48.55,127.75,47.8,107.42,50.65,101.92Z"/><path d="M79.66,91.09c2.3,5.65,1.81,31.85-.44,34.73C76.63,122.28,76.73,94.83,79.66,91.09Z"/><path d="M56.93,67.59c4.22,3.62,4.25,21.28,0,24.82Z"/><path d="M80.18,39.59v17H78.37v-17Z"/><path d="M35.09,93C38.62,95.58,40,105,37.93,106.36c-.52.35-2.7-.46-2.72-.81C35,101.66,35.09,97.76,35.09,93Z"/><path d="M37.18,124.81c-3.11-4.29-2.23-8.65-.83-13C40,116,38.47,120.4,37.18,124.81Z"/><path d="M57.38,7.72l-15.6,4.14-.15,1.9,9.92,3.65c-.83.41-1.22.76-1.41.67-3.54-1.58-7-3.21-10.56-4.82,3.21-1.83,6.28-4,9.69-5.37,2.49-1,5.43-.84,8.16-1.2Z"/><path d="M76.9,13.41c-5.84,5.15-12.06,5.22-18.52,4.5Z"/></g></g></svg>