<svg fill="#5e5c58" xmlns="http://www.w3.org/2000/svg" viewBox="0 0 175.68 103"><g id="Layer_2" data-name="Layer 2"><g id="Layer_1-2" data-name="Layer 1"><path d="M77.12,25.76C94.89,26,110.89,32.52,126.56,40a186.48,186.48,0,0,1,17.52,9.54,14.23,14.23,0,0,1,5.38,6.22c4.75,11.49-1.5,27-13.33,31-10.65,3.58-21.86,5.46-32.81,8.16-1.5.37-3.37.79-4.23,1.86-4.1,5.06-9.46,5.61-15.35,5.17a20.69,20.69,0,0,0-7.25.38c-5.56,1.62-10,.34-14.12-3.67A8.64,8.64,0,0,0,57,96.41c-7-.11-9.37-1.63-12-8.2a7.4,7.4,0,0,0-3.06-3.52c-6.11-3.35-7.54-8.72-7.53-15.16,0-2.3-1.45-4.61-2.31-6.89-.17-.43-.72-.69-1-1.08-3.09-4-6.87-8.2-4.72-13.43,2-5,7.56-4.91,12.16-5.13,4.12-.2,6.8-1.64,9.4-5.08C55.12,28.33,65.59,25.58,77.12,25.76Zm50.07,53.43c0-.75.07-1.5.1-2.25a57.27,57.27,0,0,1,6.08-.73c12.25-.14,12.25-.11,13.4-12.45,0-.16,0-.33,0-.5.53-5-1.24-8.79-5.73-11.22-4-2.15-7.85-4.39-11.85-6.44C116.3,39,103,33.25,88.63,30.48c-3.25-.63-5.43-.56-7,3.2C78.68,40.49,72.87,44.11,65.65,45c-5.45.67-11,.66-16.45,1-5,.35-10,.49-14.91,1.3-5.29.86-6,2.82-3.33,7.62,3.45,6.29,8.89,9.78,15.78,11.13,12.83,2.51,22.71-2.66,31-11.95a38.86,38.86,0,0,1,4.32-3.62l1.65,1.53-6.14,8.6c2.73-.91,4.87-2,7.09-2.23,1.68-.15,3.46.9,5.2,1.41-1.38.74-2.69,1.9-4.15,2.14C76.91,63.43,72.42,70.64,75,79.25c1.82,6.15,6.09,9.56,12,10.68,17.72,3.32,34.35-.88,50.5-7.89.53-.22.9-.8,2.16-2-2.92,0-4.84.11-6.74,0S129.1,79.48,127.19,79.19ZM39,67.9c-1.61,7.31.11,10.77,5.69,14a9.16,9.16,0,0,1,3.79,4.52c1.94,5.59,3.77,6.71,9.59,6.1,1.9-.2,4.68.47,5.83,1.8C68,99.07,70.56,100,76.5,98.35a25.77,25.77,0,0,1,6.71-.43c3.79,0,7.85,1.32,11.43-2.65-8.31-1.3-16.33-2.34-21-9.81C69.25,78.34,69,71,73.86,63.57,62.89,71.41,51.37,72.15,39,67.9ZM78.69,29.36c-11.47.11-21.55,2.28-29,12.1C65,43.62,77.06,39.52,78.69,29.36Z"/><path d="M147.37,16.89c-6,1.52-9.51,5.16-10.41,11.35l-1.55-.76c.86-2.38,1.28-5.08,2.7-7.06C140.22,17.47,143.2,15.41,147.37,16.89Z"/><path d="M88.57,0c-3.83,5.22-3.31,10.4.7,16.27C82.61,12.35,82.51,4.54,88.57,0Z"/><path d="M0,59.12c5.17,3.43,10.23,3.7,16-1C12.57,65.15,4.49,65.24,0,59.12Z"/><path d="M159.74,62.94c4.63-5.55,10.85-5.58,15.94.1C170.34,59.94,165.08,59.7,159.74,62.94Z"/><path d="M28.94,16.56c.93,6.38,5.14,9.36,12.12,10.91C33.06,28.89,27.84,23.76,28.94,16.56Z"/><path d="M99.31,45.32h11.24l.7,1.5c-2,1-4.06,2.77-6.11,2.79S100.88,48,98.75,47Z"/><path d="M140.13,55.25,144.5,58a42.57,42.57,0,0,1-6,2.94c-.56.18-1.66-1.31-2.52-2Z"/></g></g></svg>