<svg fill="#fcb93d" xmlns="http://www.w3.org/2000/svg" viewBox="0 0 189.69 100.4"><g id="Layer_2" data-name="Layer 2"><g id="Layer_1-2" data-name="Layer 1"><path d="M142.15,40.06l2.11,2.16,15.21-15.33-2-2Z"/><path d="M64.12,68.85c7.49,0,15,.11,22.47,0,4.14-.09,6.24,1.48,6.21,5.77-.06,6.65,0,13.31,0,20,0,3.88-1.65,5.84-5.69,5.82q-23.47-.09-46.95,0c-3.77,0-5.5-1.74-5.48-5.45q0-10.24,0-20.48c0-4,2-5.63,5.91-5.58C48.46,68.93,56.29,68.86,64.12,68.85Zm-.31,26.29v.09h13c12.46,0,10.78.94,10.88-10.47,0-2.16,0-4.32,0-6.48,0-3.35-1.65-4.76-5-4.75q-19.2.07-38.39,0c-3.3,0-4.93,1.57-5,4.84,0,3.49.12,7-.09,10.47-.26,4.43,1.54,6.44,6.07,6.32C51.51,95,57.66,95.14,63.81,95.14Z"/><path d="M123.35,100.35c-7.48,0-15-.08-22.45,0-4.3.07-6.47-1.52-6.33-6.14.21-6.64.15-13.3,0-19.95-.07-3.83,1.65-5.41,5.39-5.4q23.44.06,46.89,0c3.73,0,5.47,1.54,5.4,5.39-.11,6.82-.14,13.64.06,20.46.12,4-1.47,5.74-5.55,5.67C139,100.25,131.17,100.35,123.35,100.35Zm0-26.84v0c-6.32,0-12.64.06-19,0-3.52,0-5.27,1.36-5.16,5,.11,3.82.08,7.65,0,11.48-.05,3.26,1.39,5,4.72,5.06q19.47.06,38.93,0c3,0,4.61-1.54,4.61-4.64,0-3.83-.06-7.66.1-11.48.17-4.15-1.86-5.61-5.79-5.53C135.71,73.61,129.55,73.51,123.39,73.51Z"/><path d="M93.67,35.81c7.65,0,15.31.1,23-.05,4-.08,5.83,1.38,5.73,5.52q-.23,10.23,0,20.47c.09,3.94-1.9,5.41-5.46,5.42q-23.48,0-46.95,0c-3.34,0-5.31-1.52-5.28-5.15q.09-10.48,0-21c0-3.81,1.77-5.36,5.52-5.3C78,35.89,85.84,35.81,93.67,35.81Zm-.17,4.67v0c-6.49,0-13,0-19.47,0-3.06,0-4.71,1.31-4.71,4.45,0,4.32-.31,8.69.23,13,.19,1.51,2.49,3.88,3.88,3.92,13.29.29,26.61.31,39.9,0,1.46,0,3.82-2.59,4.08-4.25.61-3.9.17-7.95.22-11.95.05-3.53-1.59-5.18-5.16-5.13C106.15,40.53,99.83,40.48,93.5,40.48Z"/><path d="M39,41.79,36.93,44,21.72,28.62l2-2Z"/><path d="M95.54,21.67l3-.09L97.51,0,94.67.12Z"/><path d="M168,82.77l.11,3,21.57-1.11-.13-2.84Z"/><path d="M0,84.69l.11,3L21.68,86.6l-.13-2.84Z"/></g></g></svg>